<svg id="Calque_1" data-name="Calque 1" xmlns="http://www.w3.org/2000/svg" viewBox="0 0 1000 1000"><defs><style>.cls-1{fill:#3e2416;}.cls-1,.cls-2,.cls-3,.cls-4{fill-rule:evenodd;}.cls-2,.cls-5{fill:#f0900a;}.cls-3,.cls-7{fill:#e00819;}.cls-10,.cls-4{fill:#10953f;}.cls-6{fill:#1d1d1b;}.cls-8{fill:none;}.cls-9{fill:#fff;}.cls-11{fill:#009640;}</style></defs><path class="cls-1" d="M236.82,328.61l-1,.57L233.7,328C234.74,328.17,235.77,328.38,236.82,328.61Z"/><path class="cls-1" d="M219.76,438.59v.21l-1.33-.65Z"/><path class="cls-1" d="M236.82,328.61l-1,.57L233.7,328C234.74,328.17,235.77,328.38,236.82,328.61Z"/><path class="cls-1" d="M236.82,328.61l-1,.57L233.7,328C234.74,328.17,235.77,328.38,236.82,328.61Z"/><path class="cls-1" d="M383.38,390.76a57.49,57.49,0,0,1,14.46,16.05c3.36,5.7,3.56,8.72,3.59,9.82,0,1.55-.35,4-1.12,9s-.9,4.87-.82,5.82c.43,4.75,3.86,8.16,5.23,9.52a23,23,0,0,0,4.29,3.29c4.44,2.79,6.95,2.74,10.88,5.59,1.11.8,2.4,1.32,3.14,2.72a5.07,5.07,0,0,1-.91,6.27c-2.41,3-3.76,3.43-4.82,5.65a3.35,3.35,0,0,0-.47,2.5c.12.38.45,1,2.35,2,2.63,1.34,3.49.85,5.18,2a4.88,4.88,0,0,1,2.11,2.55c.42,1.41-.16,2.69-.89,4.27a14.08,14.08,0,0,1-2.53,3.76.8.8,0,0,0,0,.69.63.63,0,0,0,.38.2,8.85,8.85,0,0,1,2.37,1.27c1.36.93,1,3.82,1,4.12-.09.71-.35,1.82-3.15,5.61-2.42,3.27-2.79,3.21-3.29,4.59a11.92,11.92,0,0,0-.38,5.67,23.88,23.88,0,0,0,.94,3.76,15.81,15.81,0,0,1-.53,8.09c-1.62,4.55-11.79,7.63-24.46,5.17q-6.52,10.07-13.07,20.13a83.19,83.19,0,0,1,.71,18.19,76.05,76.05,0,0,1-6.51,26.73c-3.89,8.5-8.8,14.65-17.95,26.1-3.77,4.72-6.48,7.73-9.88,13.49-4.22,7.16-3.7,8.74-7,13.64-2,3-7,10.5-16.54,14.26-2.12.84-12.71,5-23.36,0-9.5-4.48-13.34-13.61-15.37-18.42-1.59-3.78-2.31-7.11-3.53-12.77-2.07-9.67-1-10.34-2.82-16.39-1.26-4.1-1.58-3.18-6.43-15.13-1.86-4.6-2.84-7.28-2.66-10.89s1.22-3.79,2-7.84c.56-3.1.45-5.64-.86-14.43-1.49-9.92-1.76-9.48-2-12.46a47.62,47.62,0,0,1,3-21.16,46.76,46.76,0,0,1,13.09-18.43,40.25,40.25,0,0,0,6.43.24,43.83,43.83,0,0,0,26.33-10.74,42.7,42.7,0,0,0,3.85-3.84l24.61-40.92,34.88-58.71Z"/><path class="cls-2" d="M361.92,369.89l13.7,12.76-26.95,45.27a46.38,46.38,0,0,0-8.27-10.76l-5.29-5.06Z"/><path class="cls-3" d="M324.35,363.48l35.93,3.88-27.17,43.1s-11.58-9.35-22-11.82l-10.41-2.47Z"/><path class="cls-1" d="M307.89,366.78l-19.81,28.45A69.23,69.23,0,0,0,266,399.29a67.12,67.12,0,0,0-33,25.16c-11.4,16.77-11.36,33.81-11.23,41.62a80.14,80.14,0,0,0,7,31.28,49.35,49.35,0,0,1-16.76.41,51.66,51.66,0,0,1-24.75-11.17c-3.72-2.92-14.73-11.81-19.46-27.87a55.14,55.14,0,0,1-.17-29.69c1.22-4.72,3.17-8.87,7-17.16,3.06-6.54,5.53-10.85,10.47-19.46,5.72-10,7-11.44,8.23-12.58,5.37-5.13,11.3-6.95,15.28-8.18a53,53,0,0,1,20.64-1.88c3.51.36,4.33.81,8.29,1a41.39,41.39,0,0,0,13.93-1.29c4-1.16,6.12-2.64,8.59-3.94,13.89-7.32,30.06-4.57,34.45-3.82a61.46,61.46,0,0,1,13.87,4.11Z"/><path class="cls-4" d="M271.5,500.94A100.47,100.47,0,0,0,263.21,546c-2.93-4.51-6.87-10.85-11.17-18.64-5.87-10.63-10.78-19.52-14.87-31.39-3.93-11.4-7.53-21.85-6.76-35.86.38-6.95,1.15-18.53,8.81-30.28,9.36-14.36,23-19.84,28.64-22a62.78,62.78,0,0,1,26.86-4.12,60.92,60.92,0,0,1,31.87,12.17,61.74,61.74,0,0,1,17.81,21.46l-10.46,14.94a43.37,43.37,0,0,0-8.06-17.76,44.7,44.7,0,0,0-17-13.29,45.25,45.25,0,0,0-23.34-3.7c-17.56,2.06-27.68,14.23-29.33,16.29a45.16,45.16,0,0,0-9.82,28.69A41.17,41.17,0,0,0,254,486.42a40.75,40.75,0,0,0,17.46,13.63l.31.11Z"/><path class="cls-3" d="M409.56,570.19c-7-.18-12,6.2-13.05,7.53-3.23,4.11-4.57,8.89-5.53,12.34-.82,2.94-.93,4.5-2.23,7.41a33.9,33.9,0,0,1-4.47,7.06c-5.6,7.4-8.4,11.11-9.17,12.11-5.7,7.41-6.59,8.86-7.18,11.29-.4,1.68-1.63,6.73,1.3,10,.12.14,2.48,2.7,5.52,2.35,1.9-.21,3.06-1.45,5.06-3.53,2.49-2.6,5.17-5,7.52-7.76a115.6,115.6,0,0,1,8.12-8.93c4.9-4.52,8.67-6.09,15.4-12.23a9.47,9.47,0,0,0,3.18-4.7c.67-2.7-.74-3.61-.71-6.94,0-1.72,1-4.15,2.94-8.94s2.35-5.08,2.47-6.7c0-.75.37-5.1-2.71-8A9.67,9.67,0,0,0,409.56,570.19Z"/><path class="cls-5" d="M308.42,679c-27.2,0-78.65-3.89-78.65-18.62,0-9.92,22.95-14.57,42.21-16.72l.69,6.16c-28,3.14-36.7,8.84-36.7,10.56,0,.82,3.34,4.58,19.65,7.93,14.07,2.89,32.82,4.49,52.8,4.49s38.73-1.6,52.8-4.49c16.32-3.35,19.65-7.11,19.65-7.93,0-1.22-6.18-6.9-34.75-10.33l.74-6.16c18.35,2.2,40.22,6.85,40.22,16.49C387.08,675.11,335.63,679,308.42,679Z"/><path class="cls-6" d="M518.49,458.7a48.88,48.88,0,0,0-12.86-13.5L490,433.78a10.33,10.33,0,0,1-4.48-9,5.91,5.91,0,0,1,1.37-4.11,5.07,5.07,0,0,1,4-1.52,4.23,4.23,0,0,1,4.12,2.67,15.47,15.47,0,0,1,1.22,6.43v4H522.4v-2q0-30.63-30.78-30.63a41.44,41.44,0,0,0-15.75,2.89,26.12,26.12,0,0,0-11.34,8.6,22.4,22.4,0,0,0-4.26,13.8q0,10.39,3,16.11t10,11.05l13.44,10.4a33.81,33.81,0,0,1,7.58,7.37q2.38,3.47,2.39,9.54,0,8.24-5.06,8.23-3.33,0-4.77-1.95a9.51,9.51,0,0,1-1.44-5.7l-.15-12.43H460l-.15,8.38q0,31.78,31.36,31.79,15,0,23.4-7.95T523,477.13Q523,466,518.49,458.7Z"/><path class="cls-6" d="M584.74,408.57q-8.44-8.9-23.19-8.89t-23.19,8.89q-8.45,8.88-8.45,23.91V475q0,32.81,31.64,32.8T593.19,475V432.48Q593.19,417.45,584.74,408.57Zm-17.27,71.59a10.56,10.56,0,0,1-1.44,5.92,5.71,5.71,0,0,1-9,0,10.56,10.56,0,0,1-1.44-5.92V428.43q0-9.24,5.92-9.24t5.92,9.24Z"/><path class="cls-6" d="M638.71,424.1V404.88h-7.23V382.49H606.92v22.39h-7.08V424.1h7.08v66c0,6.17,1.25,10.64,3.75,13.44s7.08,4.19,13.73,4.19a51.88,51.88,0,0,0,8-.65c2.75-.44,4.84-.84,6.29-1.23V488.54q-.44,0-1.74.15a26.56,26.56,0,0,1-2.74.14c-1.26,0-2-.43-2.32-1.3a13.85,13.85,0,0,1-.43-4V424.1Z"/><path class="cls-6" d="M705.74,382.49l-10.4,75.71-10.4-75.71H647.08V506.6h22.4V417.17l15.17,89.43H706.9l14.3-89.43V506.6h22.69V382.49Z"/><path class="cls-6" d="M513.29,518.49h-42l-12,124.11h24.13l1.45-20.08h15l1.73,20.08h23.55Zm-26.58,84.23,4.62-63.14h1.16L498,602.72Z"/><path class="cls-6" d="M559.67,535.83a2.48,2.48,0,0,1,2.6-1.45,8.5,8.5,0,0,1,2.31.44V519.21q-4.91-2-13-2-17.05,0-17.05,17v7.22H530.2l-.15,19.22h4.48V628a9.07,9.07,0,0,1,3.13-3.2,8.75,8.75,0,0,1,4.85-1.19l.69-.33c.25-.11.49-.24.74-.38l.69-.37a25.89,25.89,0,0,1,5.2-1.76,18.47,18.47,0,0,1,9.84.09V561h4.91V541.46h-5.49v-1.3A12.18,12.18,0,0,1,559.67,535.83Z"/><path class="cls-6" d="M622.23,536.84v83.41a18.81,18.81,0,0,1,9.34,1.19,17.61,17.61,0,0,1,5.42,3.23l.38.36.88.89a8.63,8.63,0,0,1,1.25,1.53l.08.07.12.13c.17.17.33.35.48.53a12.39,12.39,0,0,1,5.43-3.17l1.91-.65V536.84Zm21,105.49a1.43,1.43,0,0,1-.09.27h.59A4.82,4.82,0,0,1,643.24,642.33Zm-21-130.2v17.63h25.29V512.13Z"/><path class="cls-6" d="M719.61,578.74V562.56q0-12.72-8.52-19.8T689,535.68q-12.42,0-19.43,4.34a23.66,23.66,0,0,0-10,12.93q-3,8.59-3,22.32v32.65A62.53,62.53,0,0,0,657.86,621l.48-.1c.91-.19,1.85-.37,2.82-.52.73-.12,1.44-.25,2.14-.41l.82-.18h1.42a21.17,21.17,0,0,1,3.19-.06,12.58,12.58,0,0,1,5.9,1.91,15.62,15.62,0,0,1,3.9,3.47,24.24,24.24,0,0,1,2,2.92,9,9,0,0,1,1.52,5.17,19.6,19.6,0,0,1-2.51,9.72,53,53,0,0,0,9.73.83q13.44,0,21.89-7.44t8.45-20.45V597.38H693.9l.14,17.77a11.13,11.13,0,0,1-1.37,6.36,5.4,5.4,0,0,1-9.1-.08,11.63,11.63,0,0,1-1.52-6.14V564q0-8.81,6.21-8.81c2.22,0,3.71.74,4.48,2.24a14.31,14.31,0,0,1,1.16,6.43v14.88Z"/><path class="cls-6" d="M780.3,542.54q-8.24-6.85-21.38-6.86-16.49,0-23.77,6.65t-7.3,22.25v3.47h24.56v-6.36a7.85,7.85,0,0,1,1.52-5.06,4.46,4.46,0,0,1,3.54-1.88,4.86,4.86,0,0,1,4,2.24,10.66,10.66,0,0,1,1.66,6.43v10.84l-6.93,2.31q-11.85,3.76-17.63,6.86a21.34,21.34,0,0,0-9,9.76q-3.25,6.64-3.25,19.07,0,15.16,4.55,23.33t16.83,8.17a14.36,14.36,0,0,0,9.76-3.61,20.71,20.71,0,0,0,6-10.12V642.6h25.14V562Q788.53,549.41,780.3,542.54ZM763,615.87a12.65,12.65,0,0,1-1.23,5.85,4.27,4.27,0,0,1-4.12,2.39q-5.62,0-5.63-9.39V601.13c0-3.94.89-7,2.67-9.24A19.15,19.15,0,0,1,763,586.4Z"/><path class="cls-7" d="M813.91,547.13q0-5.45,5.35-5.44t5.37,5.44v3.22h-2.77v-3.22q0-2.71-2.58-2.73h0c-1.72,0-2.57.91-2.57,2.73v2.67q0,2.33,4.28,5.41,3.67,2.61,3.67,6.2v3.72c0,3.64-1.79,5.45-5.35,5.45s-5.37-1.82-5.37-5.45v-3.22h2.77v3.22c0,1.82.86,2.73,2.6,2.73s2.58-.91,2.58-2.73v-3.35q0-2.5-4.29-5.58-3.66-2.62-3.66-6.32Z"/><path class="cls-7" d="M837.62,542.16v2.7h-4V570.1h-2.75V544.86h-4v-2.7Z"/><path class="cls-7" d="M849.73,560.5l1.29,9.6h-2.81l-.82-6.23h-5.62l-.84,6.23h-2.8l1.27-9.54,2.89-18.4h4.56Zm-2.71.64-2.46-16.61-2.47,16.61Z"/><path class="cls-7" d="M862.58,542.16v2.7h-4V570.1h-2.76V544.86h-4v-2.7Z"/><path class="cls-7" d="M873.73,554.77v2.72h-5.82v9.91h6.75v2.7h-9.52V542.16h9.52v2.7h-6.75v9.91Z"/><path class="cls-7" d="M893.8,565.13q0,5.45-5.36,5.45c-3.57,0-5.36-1.81-5.36-5.45v-18q0-5.45,5.36-5.44t5.36,5.44Zm-2.77-18q0-2.71-2.58-2.73h0c-1.71,0-2.57.91-2.57,2.73v18c0,1.82.86,2.73,2.59,2.73S891,567,891,565.13Z"/><path class="cls-7" d="M897.21,542.16h9.53v2.7H900v9.91h5.82v2.72H900V570.1h-2.77Z"/><path class="cls-7" d="M823.78,577.05v2.7h-4V605h-2.75V579.75h-4v-2.7Z"/><path class="cls-7" d="M826.33,577.05h2.77v12.61h5.18V577.05h2.77v28h-2.77V592.39H829.1V605h-2.77Z"/><path class="cls-7" d="M849.33,589.66v2.73h-5.82v9.91h6.76V605h-9.53v-28h9.53v2.7h-6.76v9.91Z"/><path class="cls-7" d="M867.48,599.57,873,577.05h2.91v28h-2.58V582.41l-5,22.59h-1.69l-5.07-22.41V605H859v-28h2.93Z"/><path class="cls-7" d="M889.93,595.4l1.29,9.6h-2.81l-.83-6.24H882l-.84,6.24h-2.79l1.26-9.55,2.9-18.4H887Zm-2.72.64-2.45-16.62L882.29,596Z"/><path class="cls-7" d="M893.63,577.05h5.45q4.9,0,4.9,5.46v4.41q0,4-3.55,5.17a8.4,8.4,0,0,1-2.6.3H896.4V605h-2.77Zm2.77,2.7v9.91h1.7a5.28,5.28,0,0,0,1.49-.15,2.56,2.56,0,0,0,1.62-2.59v-4.41c0-1.84-.85-2.76-2.57-2.76Z"/><path class="cls-7" d="M824.51,630.29l1.3,9.6H823l-.83-6.23h-5.62l-.84,6.23h-2.79l1.26-9.54,2.89-18.4h4.56Zm-2.71.64-2.45-16.61-2.47,16.61Z"/><path class="cls-7" d="M828.22,612h9.53v2.69H831v9.92h5.82v2.72H831v12.61h-2.77Z"/><path class="cls-7" d="M840.45,612h5.45c3.26,0,4.9,1.82,4.9,5.45v4.41q0,3.39-3.54,4.69l4.67,13.39h-3.06l-3.87-13-1.79.1v12.92h-2.76Zm2.76,2.69v9.92h1.71a5.24,5.24,0,0,0,1.49-.16,2.56,2.56,0,0,0,1.62-2.59V617.4c0-1.84-.86-2.76-2.57-2.76Z"/><path class="cls-7" d="M854.27,612H857v27.94h-2.77Z"/><path class="cls-7" d="M871.24,634.92q0,5.43-5.37,5.45c-3.56,0-5.35-1.82-5.35-5.45v-18c0-3.63,1.79-5.44,5.35-5.44s5.37,1.81,5.37,5.44v3.22h-2.77v-3.22q0-2.71-2.58-2.73h0c-1.71,0-2.57.91-2.57,2.73v18q0,2.73,2.58,2.73c1.74,0,2.6-.91,2.6-2.73V631.7h2.77Z"/><path class="cls-7" d="M884.83,630.29l1.29,9.6h-2.81l-.82-6.23h-5.63l-.83,6.23h-2.8l1.26-9.54,2.9-18.4H882Zm-2.71.64-2.46-16.61-2.47,16.61Z"/><path d="M515.32,694.81l2.87,11.36,2.87-11.36h2.42l-4.14,13.36v9.7h-2.29v-9.7l-4.14-13.36Z"/><path d="M532.72,710.9l1.07,7h-2.32l-.68-4.54h-4.64l-.7,4.54h-2.3l1-6.93,2.39-13.37h3.76Zm-2.24.47-2-12.07-2,12.07Z"/><path d="M544.39,714.31q0,3.95-4.43,4c-2.94,0-4.42-1.32-4.42-4V701.23c0-2.63,1.48-4,4.42-4s4.43,1.32,4.43,4Zm-2.28-13.08c0-1.31-.71-2-2.14-2h0c-1.41,0-2.12.66-2.12,2v13.08q0,2,2.13,2c1.43,0,2.15-.66,2.15-2Z"/><path d="M555.93,714.3c0,2.64-1.47,4-4.43,4s-4.41-1.33-4.41-4V697.61h2.28V714.3c0,1.32.71,2,2.13,2s2.15-.67,2.15-2V697.61h2.28Z"/><path d="M558.86,697.57h2.41l4.41,16.48V697.62l2,0v20.29h-2.4L561,701.74v16.13h-2.16Z"/><path d="M570.76,697.57h4.79c2.7,0,4.06,1.33,4.06,4v12.39c0,2.63-1.43,3.94-4.29,4h-4.56Zm2.28,2V715.9h2.15q2.13,0,2.13-2V701.53c0-1.32-.71-2-2.13-2Z"/><path d="M589.51,706.74v2H584.7v7.19h5.58v2h-7.86v-20.3h7.86v2H584.7v7.2Z"/><path d="M592.63,714.41h3.11v2.86l-1.17,4h-1.09l.73-4h-1.58Z"/><path d="M612,713.77q0,4.49-4.43,4.5t-4.42-4.5V698.91q0-4.49,4.42-4.49t4.43,4.49v2.66h-2.29v-2.66q0-2.24-2.13-2.25h0c-1.42,0-2.12.75-2.12,2.25v14.86q0,2.25,2.13,2.25c1.43,0,2.14-.75,2.14-2.25v-2.66H612Z"/><path d="M623.22,710.9l1.07,7H622l-.68-4.54h-4.64l-.69,4.54h-2.31l1-6.93,2.39-13.37h3.76Zm-2.24.47-2-12.07-2,12.07Z"/><path d="M633.3,713.93l4.56-16.36h2.4v20.3h-2.13V701.46L634,717.87h-1.39l-4.19-16.27v16.27h-2.18v-20.3h2.42Z"/><path d="M650.4,706.74v2h-4.81v7.19h5.58v2h-7.86v-20.3h7.86v2h-5.58v7.2Z"/><path d="M653.63,697.57h4.5q4.05,0,4,4v3.21c0,1.64-1,2.77-2.92,3.4l3.85,9.73h-2.53l-3.18-9.46-1.48.07v9.39h-2.29Zm2.29,2v7.2h1.4a4.59,4.59,0,0,0,1.24-.12,1.85,1.85,0,0,0,1.33-1.88v-3.21c0-1.32-.71-2-2.12-2Z"/><path d="M673.05,714.31q0,3.95-4.43,4c-2.94,0-4.42-1.32-4.42-4V701.23c0-2.63,1.48-4,4.42-4s4.43,1.32,4.43,4Zm-2.28-13.08c0-1.31-.71-2-2.14-2h0c-1.41,0-2.12.66-2.12,2v13.08q0,2,2.13,2c1.43,0,2.15-.66,2.15-2Z"/><path d="M684.48,714.31q0,3.95-4.43,4t-4.42-4V701.23q0-3.94,4.42-4t4.43,4Zm-2.29-13.08q0-2-2.13-2h0q-2.13,0-2.13,2v13.08c0,1.32.72,2,2.14,2s2.14-.66,2.14-2Z"/><path d="M687.29,697.57h2.4l4.42,16.48V697.62l2,0v20.29h-2.41l-4.28-16.13v16.13h-2.16Z"/><path class="cls-6" d="M567.45,667.65a.57.57,0,0,0-.42-.14,1.66,1.66,0,0,0-.71.14l-.84.39c-.15,1.32-.25,2.52-.29,3.62v.05c1.15-1.41,2-2.44,2.54-3.07a1.53,1.53,0,0,0,.14-.71A1.52,1.52,0,0,1,567.45,667.65Z"/><path class="cls-8" d="M567.45,667.65a.57.57,0,0,0-.42-.14,1.66,1.66,0,0,0-.71.14l-.84.39c-.15,1.32-.25,2.52-.29,3.62v.05c1.15-1.41,2-2.44,2.54-3.07a1.53,1.53,0,0,0,.14-.71A1.52,1.52,0,0,1,567.45,667.65Z"/><path class="cls-6" d="M616.16,535.54v21.09a51.65,51.65,0,0,0-11.77,1.52q-6.43,1.51-6.43,3.54v59.44a13.47,13.47,0,0,0-10.83-.2,16.12,16.12,0,0,0-7.26,6.66c-1.21,2-2.62,4.45-4.2,7.42-.57,1.07-1.14,2.16-1.71,3.26-.29.56-.59,1.12-.88,1.69-.14.28-.28.56-.41.84v-104H598v11.7a17.8,17.8,0,0,1,6.57-9.61A19.35,19.35,0,0,1,616.16,535.54Z"/><path class="cls-6" d="M547.69,675.55c-.19.19-.14.38.14.57a.87.87,0,0,0,.57.14h.28a.65.65,0,0,0,.36-.07c0-.05.16-.07.35-.07.65-.29,1.45-.66,2.4-1.13l3-1.49c1-.51,2-1,3-1.55s1.7-.91,2.26-1.2c1-.56,2.09-1.1,3.18-1.62.79-.38,1.57-.74,2.33-1.09-.15,1.32-.25,2.52-.29,3.62v.05l-.14.17a51.45,51.45,0,0,1-4.23,4.59,44.15,44.15,0,0,1-5.08,4.23,12.73,12.73,0,0,1-5.22,2.33l-2.12.28c-.66.1-1.22.19-1.69.29a14.29,14.29,0,0,1-4.8-.71,19.64,19.64,0,0,1-3.81-1.84,3.85,3.85,0,0,1-2-2.68l-.42-2.11q-.13-1.41,1.48-5.15c1.08-2.5,2.33-5.08,3.74-7.77s2.82-5.22,4.23-7.62,2.35-4,2.83-4.87c1.31-2.16,2.61-4.35,3.88-6.56.32-.56.64-1.12.95-1.69,1-1.65,1.87-3.32,2.79-5,.18-.38.35-.73.49-1.06s.3-.68.5-1.06.14-.56-.15-.56a.57.57,0,0,0-.42-.14,2.77,2.77,0,0,1-.7.21,2.14,2.14,0,0,0-.85.35,22,22,0,0,1-2.33,1.27c-.8.38-1.62.8-2.47,1.27a3.41,3.41,0,0,1-2.54.43,2.53,2.53,0,0,1-1.55-.43c-.76-.66-1.51-1.27-2.26-1.83s-1.51-1.18-2.26-1.84a1.6,1.6,0,0,1-.28-1.83,2.52,2.52,0,0,1,.78-1.06,1.51,1.51,0,0,1,1.05-.07,2.46,2.46,0,0,0,2.26-.28,14.85,14.85,0,0,1,1.48-.78,12.23,12.23,0,0,0,1.48-.78,19,19,0,0,1,3.82-1.27,11.23,11.23,0,0,1,7.19.43,9,9,0,0,1,.83.36,9.71,9.71,0,0,1,2.28,1.47l.91.92a1.49,1.49,0,0,1,.29.35,1.78,1.78,0,0,0,.21.35,7.29,7.29,0,0,0,.84.92,6.82,6.82,0,0,1,1.42,8.05c-.48,1.22-1,2.44-1.48,3.67a31.29,31.29,0,0,1-1.77,3.52c-.47.76-1,1.7-1.62,2.83s-1.32,2.4-2.12,3.81-1.6,2.91-2.4,4.51-1.62,3.16-2.47,4.66Q550.94,669.48,547.69,675.55Z"/><path class="cls-9" d="M610.74,633.76a1.05,1.05,0,0,1-.11-.43C610.67,633.47,610.71,633.61,610.74,633.76Z"/><path class="cls-9" d="M567.87,667.93a1.53,1.53,0,0,1-.14.71c-.54.63-1.39,1.66-2.54,3.07v-.05c0-1.1.14-2.3.29-3.62l.84-.39a1.66,1.66,0,0,1,.71-.14.57.57,0,0,1,.42.14A1.52,1.52,0,0,0,567.87,667.93Z"/><path class="cls-6" d="M603.58,636.6c-.05-.22-.09-.43-.14-.63h0c-.08-.34-.17-.65-.25-.94,0,0,0-.07,0-.1a7.21,7.21,0,0,0-.86-2,48.18,48.18,0,0,0-4.35-3.17,20,20,0,0,0-2.85-1.56,6.17,6.17,0,0,0-4.94-.28,8.88,8.88,0,0,0-3.81,3.67c-1.13,1.84-2.45,4.16-4,7l-2.1,4-.44.84a33.29,33.29,0,0,0-2.12,5.16,117.41,117.41,0,0,0-3.7,13.85,1.29,1.29,0,0,0,0,.19,69.9,69.9,0,0,0-1.2,9.31c0,.93,0,1.77,0,2.51a12.16,12.16,0,0,0,.3,2.78,5.23,5.23,0,0,0,.84,2.12,5.83,5.83,0,0,0,.92,1c.33.28.68.56,1.06.85a22.82,22.82,0,0,0,2.33,1.27c.8.37,1.57.7,2.32,1a7.46,7.46,0,0,0,4.94.5,8.35,8.35,0,0,0,4-2.9,33.11,33.11,0,0,0,3.66-5.85q1.85-3.6,4.1-8.4.71-1.54,1.41-3.24c.47-1.13.94-2.21,1.41-3.25a39.75,39.75,0,0,0,3.18-9.1,40.84,40.84,0,0,0,.91-8.19A32.12,32.12,0,0,0,603.58,636.6Zm-6.44,6q0,.4-.12.84c-.24,1.47-.5,2.95-.78,4.45s-.61,2.94-1,4.31-.66,2.32-.84,2.89c-.57,1.69-1.32,3.72-2.26,6.07s-1.89,4.63-2.82,6.84-1.79,4.14-2.55,5.79-1.22,2.61-1.41,2.89a2.28,2.28,0,0,1-1.13.85,1.18,1.18,0,0,1-.42-.71c.09-.56.21-1.32.35-2.26s.33-1.92.57-3,.44-2,.63-3a12.87,12.87,0,0,1,.57-2.12q.28-1,.84-2.82t1.2-3.81c.43-1.32.85-2.59,1.27-3.81s.73-2.17.92-2.83c.28-.84.64-2,1.06-3.6s.92-3.15,1.48-4.79c.27-.77.53-1.52.78-2.26s.57-1.66.84-2.47a31.77,31.77,0,0,1,1.34-3.39.86.86,0,0,1,.57-.28c.19,0,.37.19.56.56.1.66.19,1.28.29,1.84a9.26,9.26,0,0,1,.14,1.13A12.09,12.09,0,0,1,597.14,642.6Z"/><path class="cls-6" d="M610.63,633.33a1.05,1.05,0,0,0,.11.43C610.71,633.61,610.67,633.47,610.63,633.33Z"/><path class="cls-9" d="M610.63,633.33a1.05,1.05,0,0,0,.11.43C610.71,633.61,610.67,633.47,610.63,633.33Z"/><path class="cls-6" d="M637.87,667.93a1.66,1.66,0,0,1-.14.71c-.57.66-1.46,1.74-2.68,3.24a53.19,53.19,0,0,1-4.24,4.59,43.32,43.32,0,0,1-5.08,4.23,12.62,12.62,0,0,1-5.22,2.33l-2.12.28c-.66.1-1.22.19-1.69.29a14.37,14.37,0,0,1-4.8-.71,19.64,19.64,0,0,1-3.81-1.84,3.87,3.87,0,0,1-2-2.68l-.43-2.11q-.13-1.41,1.48-5.15c1.09-2.5,2.33-5.08,3.74-7.77s2.83-5.22,4.24-7.62,2.35-4,2.82-4.87q2-3.24,3.88-6.56l1-1.69q1.41-2.48,2.78-5c.19-.38.35-.73.5-1.06s.3-.68.49-1.06.14-.56-.14-.56a.62.62,0,0,0-.43-.14,2.65,2.65,0,0,1-.7.21,2.2,2.2,0,0,0-.85.35,22,22,0,0,1-2.23,1.22l-.1.05c-.8.38-1.62.8-2.47,1.27a3.41,3.41,0,0,1-2.54.43,2.55,2.55,0,0,1-1.55-.43c-.75-.66-1.5-1.27-2.26-1.83s-1.5-1.18-2.25-1.84a1.27,1.27,0,0,1-.31-.43h0c0-.15-.07-.29-.11-.43v0a1.91,1.91,0,0,1,.14-.94,2.61,2.61,0,0,1,.78-1.06,1.54,1.54,0,0,1,1.06-.07,2.46,2.46,0,0,0,2.26-.28,13.82,13.82,0,0,1,1.48-.78,13,13,0,0,0,1.48-.78,18.74,18.74,0,0,1,3.81-1.27l.59-.15a11.38,11.38,0,0,1,6.61.58,10.13,10.13,0,0,1,3.1,1.83l.92.92a1.68,1.68,0,0,1,.28.35,4,4,0,0,0,.21.35,8.78,8.78,0,0,0,.85.92,6.8,6.8,0,0,1,1.41,8.05c-.21.54-.42,1.08-.64,1.62s-.55,1.36-.84,2a33,33,0,0,1-1.76,3.52c-.48.76-1,1.7-1.63,2.83s-1.32,2.4-2.11,3.81-1.61,2.91-2.4,4.51-1.63,3.16-2.47,4.66q-2.84,5.5-6.07,11.57c-.19.19-.14.38.14.57a.82.82,0,0,0,.56.14h.29a.63.63,0,0,0,.35-.07c.05-.05.16-.07.35-.07.66-.29,1.46-.66,2.4-1.13l3-1.49c1-.51,2-1,3-1.55s1.69-.91,2.26-1.2c1-.56,2.09-1.1,3.17-1.62s2.14-1,3.18-1.48a1.58,1.58,0,0,1,.7-.14.62.62,0,0,1,.43.14A1.52,1.52,0,0,0,637.87,667.93Z"/><path class="cls-6" d="M674.14,664.12a5.58,5.58,0,0,1-1,5.15,21.82,21.82,0,0,1-5.15,5,52.21,52.21,0,0,1-7.48,4.45,77.33,77.33,0,0,1-7.9,3.38,42,42,0,0,1-6.43,1.84c-1.78.33-2.82.26-3.1-.21a2.27,2.27,0,0,1-.28-1,12,12,0,0,1,0-2.54,5.58,5.58,0,0,1,.84-2.4,9.25,9.25,0,0,1,3-3.53,31,31,0,0,1,4.37-2.54c1-.37,2-.78,2.9-1.2s1.81-.82,2.75-1.2q2.4-1.12,4.72-2.4a48,48,0,0,0,4.59-2.82,1.85,1.85,0,0,0,.35-.42.8.8,0,0,1,.36-.29c1.13-1.12,1.1-1.95-.07-2.46a37.94,37.94,0,0,0-4.8-1.63c-2-.56-4.14-1.24-6.35-2a8.61,8.61,0,0,1-4.73-3.6,5.4,5.4,0,0,1,.57-4.8,25.39,25.39,0,0,1,4.37-5.08c1.13-1,2.26-2.09,3.39-3.18s2.3-2.14,3.52-3.17c.83-.79,1.52-1.5,2.08-2.12a9.57,9.57,0,0,0,1.66-2.26c.43-.94.31-1.53-.35-1.76a6.53,6.53,0,0,0-3.17.07l-.94.19c-1.2.26-2.49.6-3.86,1q-2.61.78-5.15,1.62l-4.24,1.41a5.15,5.15,0,0,1-1.07.19c-.36,0-.57-.07-.62-.26s-.38-1.15-.85-2.47a4.56,4.56,0,0,1,1.47-.63l.58-.21,4.59-1.56,4.72-1.55c1.46-.47,2.24-.7,2.33-.7l.42-.09c.71-.15,1.44-.29,2.19-.41s1.77-.3,2.61-.49h1a12.83,12.83,0,0,1,2.33-.07,4.92,4.92,0,0,1,2.33.77,7.9,7.9,0,0,1,2,1.77,15.76,15.76,0,0,1,1.56,2.33,1.4,1.4,0,0,1,.28,1,11.63,11.63,0,0,1-2.47,7.36l-.21.26c-.94,1.13-1.58,1.86-1.91,2.19s-.77.73-1.34,1.2-1.41,1.23-2.54,2.26-2.92,2.82-5.36,5.36a2.55,2.55,0,0,0-.85,1.13,1.38,1.38,0,0,0-.21,1,.79.79,0,0,0,.64.71,5.7,5.7,0,0,0,1.27.35,5.45,5.45,0,0,1,1.27.35,19.66,19.66,0,0,1,6.56,2.89A12.91,12.91,0,0,1,674.14,664.12Z"/><path class="cls-10" d="M546.7,683.6a14.27,14.27,0,0,1-4.79-.71,20.19,20.19,0,0,1-3.81-1.83,3.9,3.9,0,0,1-2-2.68l-.42-2.12q-.13-1.41,1.48-5.15t3.74-7.76q2.12-4,4.23-7.62c1.41-2.4,2.35-4,2.83-4.87,1.31-2.17,2.61-4.35,3.88-6.57s2.51-4.44,3.74-6.7c.18-.37.35-.73.49-1.06s.3-.68.49-1.06.14-.56-.14-.56a.57.57,0,0,0-.42-.14,2.73,2.73,0,0,1-.71.21,2.32,2.32,0,0,0-.84.35,22,22,0,0,1-2.33,1.27c-.8.38-1.62.8-2.47,1.27a3.33,3.33,0,0,1-2.54.43,2.53,2.53,0,0,1-1.55-.43c-.76-.65-1.51-1.27-2.26-1.83s-1.51-1.18-2.26-1.84a1.6,1.6,0,0,1-.28-1.83,2.59,2.59,0,0,1,.78-1.06,1.51,1.51,0,0,1,1.05-.07,2.46,2.46,0,0,0,2.26-.28,15.9,15.9,0,0,1,1.48-.78,13.77,13.77,0,0,0,1.48-.77,18,18,0,0,1,3.81-1.27,11.19,11.19,0,0,1,7.2.42,10.19,10.19,0,0,1,3.11,1.83l.91.92a1.49,1.49,0,0,1,.29.35,1.81,1.81,0,0,0,.21.36,8.39,8.39,0,0,0,.84.91,6.82,6.82,0,0,1,1.42,8.05c-.48,1.22-1,2.45-1.49,3.67a28.89,28.89,0,0,1-1.76,3.52c-.47.76-1,1.7-1.62,2.83s-1.32,2.4-2.12,3.81-1.6,2.91-2.4,4.51-1.62,3.16-2.47,4.66q-2.82,5.5-6.07,11.57c-.19.19-.14.38.14.57a.87.87,0,0,0,.57.14h.28c.19,0,.31,0,.35-.07a.57.57,0,0,1,.36-.07c.65-.29,1.45-.66,2.4-1.13l3-1.48c1-.52,2-1,3-1.56s1.7-.91,2.26-1.2c1-.56,2.09-1.1,3.18-1.62s2.13-1,3.17-1.48a1.63,1.63,0,0,1,.71-.14.59.59,0,0,1,.42.14,1.52,1.52,0,0,0,.42.28,1.53,1.53,0,0,1-.14.71c-.56.66-1.46,1.74-2.68,3.24a51.45,51.45,0,0,1-4.23,4.59,44.15,44.15,0,0,1-5.08,4.23,12.73,12.73,0,0,1-5.22,2.33l-2.12.29C547.74,683.41,547.18,683.5,546.7,683.6Z"/><path class="cls-10" d="M577.75,648.6a32.77,32.77,0,0,1,2.12-5.15q1.26-2.48,2.54-4.87,2.25-4.23,4-7a8.88,8.88,0,0,1,3.81-3.67,6.14,6.14,0,0,1,4.94.29,33.4,33.4,0,0,1,7.2,4.72,10.79,10.79,0,0,1,1.27,3.67,32.12,32.12,0,0,1,.56,6.42,40.82,40.82,0,0,1-.92,8.19,39.07,39.07,0,0,1-3.17,9.1c-.47,1-.94,2.12-1.41,3.25s-.94,2.21-1.41,3.24q-2.26,4.8-4.1,8.4a33,33,0,0,1-3.67,5.86,8.26,8.26,0,0,1-4,2.89,7.5,7.5,0,0,1-4.94-.49c-.75-.29-1.53-.62-2.32-1a21.81,21.81,0,0,1-2.33-1.27c-.38-.28-.73-.57-1.06-.85a5.83,5.83,0,0,1-.92-1,5.28,5.28,0,0,1-.85-2.11,20.93,20.93,0,0,1-.28-5.3,68.46,68.46,0,0,1,1.2-9.31A117,117,0,0,1,577.75,648.6ZM597.23,640a9.49,9.49,0,0,0-.14-1.13c-.1-.56-.19-1.17-.29-1.83-.19-.38-.37-.57-.56-.57a.86.86,0,0,0-.57.28,32.67,32.67,0,0,0-1.34,3.39c-.52,1.51-1.05,3.08-1.62,4.73s-1.06,3.24-1.48,4.8-.78,2.75-1.06,3.6c-.19.65-.49,1.6-.92,2.82s-.84,2.49-1.27,3.81-.82,2.59-1.2,3.81-.66,2.16-.84,2.82a12.87,12.87,0,0,0-.57,2.12c-.19.94-.4,1.93-.63,3s-.43,2-.57,3-.26,1.7-.35,2.26a1.16,1.16,0,0,0,.42.71.81.81,0,0,0,.57-.28.86.86,0,0,0,.56-.57,31.2,31.2,0,0,0,1.41-2.89q1.13-2.47,2.54-5.79t2.83-6.84c.93-2.35,1.69-4.38,2.25-6.07.19-.56.47-1.53.85-2.89s.71-2.8,1-4.31.54-3,.77-4.44A13.59,13.59,0,0,0,597.23,640Z"/><path class="cls-10" d="M616.7,683.6a14.37,14.37,0,0,1-4.8-.71,20.19,20.19,0,0,1-3.81-1.83,3.88,3.88,0,0,1-2-2.68l-.43-2.12q-.13-1.41,1.48-5.15t3.74-7.76q2.13-4,4.24-7.62c1.41-2.4,2.35-4,2.82-4.87,1.32-2.17,2.61-4.35,3.88-6.57s2.52-4.44,3.74-6.7c.19-.37.35-.73.49-1.06s.31-.68.5-1.06.14-.56-.14-.56a.62.62,0,0,0-.43-.14,2.77,2.77,0,0,1-.7.21,2.36,2.36,0,0,0-.85.35,21,21,0,0,1-2.33,1.27c-.8.38-1.62.8-2.47,1.27a3.32,3.32,0,0,1-2.54.43,2.55,2.55,0,0,1-1.55-.43c-.75-.65-1.51-1.27-2.26-1.83s-1.5-1.18-2.25-1.84a1.58,1.58,0,0,1-.29-1.83,2.69,2.69,0,0,1,.78-1.06,1.54,1.54,0,0,1,1.06-.07,2.46,2.46,0,0,0,2.26-.28,14.73,14.73,0,0,1,1.48-.78,14.78,14.78,0,0,0,1.48-.77,17.58,17.58,0,0,1,3.81-1.27,11.19,11.19,0,0,1,7.2.42,10.13,10.13,0,0,1,3.1,1.83l.92.92a1.68,1.68,0,0,1,.28.35,4,4,0,0,0,.21.36,10.45,10.45,0,0,0,.85.91,6.8,6.8,0,0,1,1.41,8.05c-.47,1.22-1,2.45-1.48,3.67a32.1,32.1,0,0,1-1.76,3.52c-.48.76-1,1.7-1.63,2.83s-1.32,2.4-2.11,3.81-1.61,2.91-2.4,4.51-1.63,3.16-2.47,4.66q-2.84,5.5-6.07,11.57c-.19.19-.14.38.14.57a.82.82,0,0,0,.56.14h.29a.55.55,0,0,0,.35-.07c0-.05.16-.07.35-.07.66-.29,1.46-.66,2.4-1.13l3-1.48q1.56-.78,3-1.56c.94-.51,1.69-.91,2.26-1.2,1-.56,2.09-1.1,3.17-1.62s2.14-1,3.18-1.48a1.58,1.58,0,0,1,.7-.14.62.62,0,0,1,.43.14,1.52,1.52,0,0,0,.42.28,1.66,1.66,0,0,1-.14.71c-.57.66-1.46,1.74-2.68,3.24a53.19,53.19,0,0,1-4.24,4.59,43.32,43.32,0,0,1-5.08,4.23,12.73,12.73,0,0,1-5.22,2.33l-2.12.29C617.73,683.41,617.17,683.5,616.7,683.6Z"/><path class="cls-10" d="M650.71,653.68a5.44,5.44,0,0,1,.56-4.8,26,26,0,0,1,4.38-5.08q1.7-1.54,3.39-3.18c1.13-1.08,2.3-2.13,3.52-3.17a17.89,17.89,0,0,0,3.74-4.38c.43-.93.31-1.52-.35-1.76a6.66,6.66,0,0,0-3.17.07,49.38,49.38,0,0,0-4.8,1.2q-2.61.78-5.15,1.62l-4.24,1.42c-1,.28-1.6.26-1.69-.08s-.38-1.15-.85-2.47a7.57,7.57,0,0,1,2.05-.84q2-.71,4.58-1.55l4.73-1.56c1.46-.47,2.24-.7,2.33-.7.85-.19,1.72-.35,2.61-.5s1.77-.3,2.61-.49h1a12.83,12.83,0,0,1,2.33-.07,5,5,0,0,1,2.33.78,7.67,7.67,0,0,1,2,1.76,16.59,16.59,0,0,1,1.56,2.33,1.43,1.43,0,0,1,.28,1,11.66,11.66,0,0,1-2.68,7.62c-.94,1.13-1.58,1.86-1.91,2.18s-.77.73-1.34,1.2-1.41,1.23-2.54,2.26-2.92,2.82-5.36,5.36a2.61,2.61,0,0,0-.85,1.13,1.4,1.4,0,0,0-.21,1,.79.79,0,0,0,.64.71,5.26,5.26,0,0,0,1.26.35,5.7,5.7,0,0,1,1.27.35,19.45,19.45,0,0,1,6.57,2.9,12.89,12.89,0,0,1,4.87,5.85,5.58,5.58,0,0,1-1,5.15,21.82,21.82,0,0,1-5.15,5,51.31,51.31,0,0,1-7.48,4.45,77.33,77.33,0,0,1-7.9,3.38,42,42,0,0,1-6.43,1.84c-1.78.33-2.82.26-3.1-.21a2.27,2.27,0,0,1-.28-1,10.79,10.79,0,0,1,0-2.54,5.58,5.58,0,0,1,.84-2.4,9.25,9.25,0,0,1,3-3.53,31,31,0,0,1,4.37-2.54,28.9,28.9,0,0,0,2.89-1.2q1.35-.63,2.76-1.2c1.59-.75,3.17-1.55,4.72-2.39a51.59,51.59,0,0,0,4.59-2.83,1.85,1.85,0,0,0,.35-.42.8.8,0,0,1,.36-.28c1.12-1.13,1.1-2-.07-2.47a37.94,37.94,0,0,0-4.8-1.63c-2-.56-4.14-1.24-6.35-2A8.61,8.61,0,0,1,650.71,653.68Z"/><rect x="797.23" y="540.07" width="3.98" height="103.68"/><path class="cls-11" d="M291.94,435.38a16.49,16.49,0,0,0-16.48,16.48,18.39,18.39,0,0,0,.61,4.48c1.85,7.31,7.51,15.45,11.54,20.58.41.52.8,1,1.17,1.46s.58.7.84,1c.47.57.89,1.06,1.24,1.46h0l0,0c.66.77,1.05,1.19,1.05,1.19l.72-.8.34-.4c.16-.17.32-.36.5-.57.37-.43.79-.94,1.26-1.51l.59-.72a99,99,0,0,0,6.6-9.15c3.45-5.47,6.47-11.77,6.47-17.06A16.49,16.49,0,0,0,291.94,435.38Zm0,11a5.5,5.5,0,1,1-5.49,5.49A5.51,5.51,0,0,1,291.94,446.37Z"/><circle class="cls-5" cx="291.94" cy="451.86" r="9.44"/></svg>